<svg width="95" height="24" viewBox="0 0 95 24" fill="none" xmlns="http://www.w3.org/2000/svg">
<path d="M5.04015 2.12338V8.4606C5.04015 9.71159 4.89191 10.6992 4.28248 10.6992C2.83302 10.6992 3.96953 7.27546 1.49887 7.27546C0.592959 7.27546 0 7.93387 0 8.90503C0 10.156 0.790611 12.0325 4.16718 11.9996C6.91785 11.9667 8.46613 10.4358 8.46613 6.32076V2.12338C8.46613 1.31683 9.2238 1.06992 9.2238 0.55965V0.49381C9.2238 0.279826 9.05909 0.148143 8.81202 0.148143H4.77661C4.52955 0.148143 4.36483 0.279826 4.36483 0.49381V0.55965C4.36483 1.06992 5.04015 1.31683 5.04015 2.12338Z" fill="#210705"/>
<path d="M20.0103 9.85973L16.4031 1.00408C16.1561 0.411508 15.7937 0.148143 15.1843 0.148143H12.7466C12.4995 0.148143 12.3348 0.279826 12.3348 0.49381V0.55965C12.3348 0.987619 13.2242 1.58019 12.9607 2.27152L10.0288 9.85973C9.66646 10.8144 9.02409 10.9132 9.02409 11.4235V11.4893C9.02409 11.7033 9.1888 11.835 9.43587 11.835H12.1207C12.3677 11.835 12.5324 11.7033 12.5324 11.4893V11.4235C12.5324 10.9132 11.4948 10.6663 11.7748 9.85973L12.0383 9.10256H15.8925L16.1561 9.85973C16.4361 10.6663 15.3984 10.9132 15.3984 11.4235V11.4893C15.3984 11.7033 15.5631 11.835 15.8102 11.835H20.6033C20.8503 11.835 21.015 11.7033 21.015 11.4893V11.4235C21.015 10.9132 20.3891 10.7815 20.0103 9.85973ZM12.5324 7.71989L14.0148 3.55543L15.4313 7.71989H12.5324Z" fill="#210705"/>
<path d="M32.2783 9.85973L28.9347 4.08216L30.8618 2.12338C31.6194 1.33329 32.5254 1.06992 32.5254 0.55965V0.49381C32.5254 0.279826 32.3606 0.148143 32.1136 0.148143H29.1653C28.9182 0.148143 28.7535 0.279826 28.7535 0.49381V0.55965C28.7535 1.06992 29.5111 1.44851 28.8523 2.12338L25.6734 5.43191V2.12338C25.6734 1.31683 26.4311 1.06992 26.4311 0.55965V0.49381C26.4311 0.279826 26.2663 0.148143 26.0193 0.148143H22.0168C21.7697 0.148143 21.605 0.279826 21.605 0.49381V0.55965C21.605 1.06992 22.2803 1.31683 22.2803 2.12338V9.85973C22.2803 10.6663 21.605 10.9132 21.605 11.4235V11.4893C21.605 11.7033 21.7697 11.835 22.0168 11.835H26.0193C26.2663 11.835 26.4311 11.7033 26.4311 11.4893V11.4235C26.4311 10.9132 25.6734 10.6663 25.6734 9.85973V7.44006L26.6452 6.43599L28.6876 9.85973C29.1653 10.6663 28.1276 10.9132 28.1276 11.4235V11.4893C28.1276 11.7033 28.2923 11.835 28.5394 11.835H33.0689C33.316 11.835 33.4807 11.7033 33.4807 11.4893V11.4235C33.4807 10.9132 32.8383 10.8309 32.2783 9.85973Z" fill="#210705"/>
<path d="M34.2614 11.835H42.2004C42.5957 11.835 42.744 11.6539 42.8099 11.2589L43.2546 8.52645C43.304 8.26308 43.1558 8.08202 42.8758 8.08202H42.6287C41.7887 8.08202 41.5087 10.5511 40.0098 10.5511H38.8239C38.198 10.5511 37.9509 9.95849 37.9509 9.36592V2.12338C37.9509 1.31683 38.7086 1.06992 38.7086 0.55965V0.49381C38.7086 0.279826 38.5439 0.148143 38.2968 0.148143H34.2614C34.0143 0.148143 33.8496 0.279826 33.8496 0.49381V0.55965C33.8496 1.06992 34.5249 1.31683 34.5249 2.12338V9.85973C34.5249 10.6663 33.8496 10.9132 33.8496 11.4235V11.4893C33.8496 11.7033 34.0143 11.835 34.2614 11.835Z" fill="#210705"/>
<path d="M44.1801 11.4893C44.1801 11.7033 44.3448 11.835 44.5918 11.835H48.5778C48.8249 11.835 48.9896 11.7033 48.9896 11.4893V11.4235C48.9896 10.9132 48.2319 10.6663 48.2319 9.85973V2.12338C48.2319 1.31683 48.9896 1.06992 48.9896 0.55965V0.49381C48.9896 0.279826 48.8249 0.148143 48.5778 0.148143H44.5918C44.3448 0.148143 44.1801 0.279826 44.1801 0.49381V0.55965C44.1801 1.06992 44.8554 1.31683 44.8554 2.12338V9.85973C44.8554 10.6663 44.1801 10.9132 44.1801 11.4235V11.4893Z" fill="#210705"/>
<path d="M53.0951 11.835H57.1141C57.3612 11.835 57.5259 11.7033 57.5259 11.4893V11.4235C57.5259 10.9132 56.7847 10.6663 56.7847 9.85973V1.53081H57.2788C58.4647 1.53081 58.6788 3.57189 59.5353 3.57189H59.8483C60.1612 3.57189 60.3589 3.37437 60.3095 3.06162L59.9801 0.691333C59.9306 0.296286 59.7659 0.148143 59.3706 0.148143H50.8386C50.4433 0.148143 50.2786 0.296286 50.2292 0.691333L49.8998 3.06162C49.8503 3.37437 50.048 3.57189 50.361 3.57189H50.6739C51.5304 3.57189 51.7445 1.53081 52.9304 1.53081H53.4246V9.85973C53.4246 10.6663 52.6998 10.9132 52.6998 11.4235V11.4893C52.6998 11.7033 52.8481 11.835 53.0951 11.835Z" fill="#210705"/>
<path d="M65.9533 11.9996C68.4404 11.9996 70.5652 10.765 70.5652 8.54291C70.5652 4.03278 64.2897 5.92571 64.2897 2.41967C64.2897 1.71187 64.6685 1.18514 65.5415 1.18514C67.3039 1.18514 66.8592 4.36198 69.0498 4.36198C69.9887 4.36198 70.4499 3.81879 70.4499 3.01224C70.4663 1.41559 68.2922 0 65.6074 0C62.8732 0 61.0449 1.46497 61.0449 3.65419C61.0614 8.42768 67.3698 6.69935 67.3698 9.67867C67.3698 10.3865 66.8921 10.798 66.085 10.798C63.845 10.798 64.092 7.67051 62.1979 7.67051C61.259 7.67051 60.8802 8.19724 60.8802 8.98733C60.8802 10.5675 63.0214 11.9996 65.9533 11.9996Z" fill="#210705"/>
<path d="M77.2294 11.9996C80.4577 11.9996 81.8742 9.90911 81.8742 7.80219C81.8742 7.24254 81.2319 7.11086 80.9024 7.48945C80.4248 8.03264 79.7824 8.97087 78.3659 8.97087C76.5705 8.97087 74.8246 6.94625 74.8246 3.75295C74.8246 2.13984 75.5987 1.30036 76.3894 1.30036C78.1024 1.30036 78.0859 4.62535 80.3589 4.62535C81.3307 4.62535 81.9072 4.01632 81.9072 3.16038C81.9072 1.30037 79.6177 0 77.0482 0C73.7046 0 71.5633 2.51843 71.5633 5.82695C71.5633 9.05318 73.8199 11.9996 77.2294 11.9996Z" fill="#210705"/>
<path d="M83.4044 11.835H87.4068C87.6539 11.835 87.8186 11.7033 87.8186 11.4893V11.4235C87.8186 10.9132 87.0609 10.6663 87.0609 9.85973L87.0774 6.66643H90.8328L90.8493 9.85973C90.8493 10.6663 90.1904 10.9132 90.1904 11.4235V11.4893C90.1904 11.7033 90.3387 11.835 90.5858 11.835H94.5882C94.8353 11.835 95 11.7033 95 11.4893V11.4235C95 10.9132 94.2423 10.6663 94.2423 9.85973V2.12338C94.2423 1.31683 95 1.06992 95 0.55965V0.49381C95 0.279826 94.8353 0.148143 94.5882 0.148143H90.5858C90.3387 0.148143 90.1904 0.279826 90.1904 0.49381V0.55965C90.1904 1.06992 90.8493 1.31683 90.8493 2.12338L90.8328 5.25084H87.0774V2.12338C87.0774 1.31683 87.8186 1.06992 87.8186 0.55965V0.49381C87.8186 0.279826 87.6539 0.148143 87.4068 0.148143H83.4044C83.1573 0.148143 82.9926 0.279826 82.9926 0.49381V0.55965C82.9926 1.06992 83.6679 1.31683 83.6679 2.12338V9.85973C83.6679 10.6663 82.9926 10.9132 82.9926 11.4235V11.4893C82.9926 11.7033 83.1573 11.835 83.4044 11.835Z" fill="#210705"/>
<path d="M0.197022 23.9041H4.39078C4.55966 23.9041 4.62533 23.8178 4.66286 23.6548L4.89741 22.4562C4.92556 22.3315 4.86926 22.2644 4.76606 22.2644H4.67224C4.30634 22.2644 4.18438 23.4151 3.55578 23.4151H1.83887C1.60432 23.4151 1.49174 23.2137 1.49174 22.9644V17.8918C1.49174 17.5082 1.8764 17.4795 1.8764 17.2589V17.2301C1.8764 17.1438 1.79196 17.0959 1.67 17.0959H0.197022C0.0750561 17.0959 0 17.1438 0 17.2301V17.2589C0 17.4795 0.347135 17.5082 0.347135 17.8918V23.1082C0.347135 23.4822 0 23.5301 0 23.7411V23.7699C0 23.8466 0.0750561 23.9041 0.197022 23.9041Z" fill="#210705"/>
<path d="M11.0233 23.1082L8.66839 17.4603C8.56519 17.2014 8.41508 17.0959 8.16177 17.0959H7.42059C7.31738 17.0959 7.26109 17.1534 7.26109 17.2301V17.2589C7.26109 17.4411 7.69266 17.6233 7.5707 17.9397L5.60048 23.1082C5.44098 23.5205 5.12199 23.5301 5.12199 23.7411V23.7699C5.12199 23.8562 5.19705 23.9041 5.31902 23.9041H6.37918C6.51053 23.9041 6.58559 23.8562 6.58559 23.7699V23.7411C6.58559 23.5301 6.09772 23.4822 6.23845 23.1082L6.58559 22.1589H9.41895L9.78485 23.1082C9.92558 23.4822 9.43772 23.5301 9.43772 23.7411V23.7699C9.43772 23.8562 9.51277 23.9041 9.63474 23.9041H11.3047C11.4267 23.9041 11.5018 23.8562 11.5018 23.7699V23.7411C11.5018 23.5301 11.1922 23.511 11.0233 23.1082ZM6.77323 21.6411L7.96474 18.3616L9.22193 21.6411H6.77323Z" fill="#210705"/>
<path d="M20.0049 17.0959H18.9072C18.7947 17.0959 18.7196 17.1438 18.7196 17.2397V17.2685C18.7196 17.4795 19.1793 17.5178 19.0574 17.8918L17.6594 22.4562L16.2428 17.8918C16.1208 17.4603 16.6087 17.4603 16.6087 17.2493V17.2301C16.6087 17.1438 16.543 17.0959 16.4304 17.0959H14.7792C14.6666 17.0959 14.6009 17.1438 14.6009 17.2301V17.2493C14.6009 17.4603 14.9949 17.5082 15.1169 17.8918L15.4359 18.8699L14.2069 22.4658L12.5556 17.9014C12.4149 17.5082 12.8746 17.4795 12.8746 17.2589V17.2301C12.8746 17.1534 12.7996 17.0959 12.6776 17.0959H11.0264C10.9138 17.0959 10.8387 17.1438 10.8387 17.2301V17.2493C10.8387 17.4795 11.1859 17.4603 11.3641 17.9014L13.5876 23.5973C13.6721 23.8082 13.7847 23.9041 14.0098 23.9041C14.1787 23.9041 14.3382 23.8082 14.4133 23.5781L15.7267 19.7425L17.0027 23.5973C17.0778 23.8082 17.2279 23.9041 17.4249 23.9041C17.6125 23.9041 17.8002 23.8178 17.8752 23.5781L19.7047 17.8918C19.8454 17.4699 20.1926 17.4699 20.1926 17.2589V17.2301C20.1926 17.1534 20.1269 17.0959 20.0049 17.0959Z" fill="#210705"/>
<path d="M25.7538 24C26.6733 24 27.4801 23.6836 27.9492 23.3C28.1744 23.1082 28.2401 22.974 28.2401 22.7534V21.3918C28.2401 20.9795 28.7561 20.9603 28.7561 20.7589V20.7205C28.7561 20.6342 28.681 20.5767 28.5591 20.5767L26.7952 20.5671C26.6733 20.5671 26.5795 20.6247 26.5795 20.7205V20.7589C26.5795 20.9603 27.1799 20.9795 27.1799 21.3822V22.9548C26.9172 23.1178 26.5044 23.2329 26.0259 23.2329C24.7218 23.2329 23.5678 21.7658 23.5678 19.8C23.5678 18.4863 24.3184 17.4986 25.3035 17.4986C26.7952 17.4986 26.8609 19.311 27.7335 19.311C28.0431 19.311 28.2495 19.1 28.2495 18.774C28.2495 17.9877 27.1893 17.0096 25.6037 17.0096C23.8493 17.0096 22.4514 18.3808 22.4514 20.5192C22.4514 22.389 23.9244 24 25.7538 24Z" fill="#210705"/>
<path d="M34.5889 23.1082L33.2567 21.0945C34.1761 20.7589 34.6546 20.0205 34.6546 19.2247C34.6452 17.7767 33.4631 17.0959 31.8212 17.0959H29.7009C29.5789 17.0959 29.5039 17.1438 29.5039 17.2301V17.2589C29.5039 17.4699 29.851 17.5178 29.851 17.8918V23.1082C29.851 23.4822 29.5039 23.5301 29.5039 23.7411V23.7699C29.5039 23.8562 29.5789 23.9041 29.7009 23.9041H31.1739C31.2958 23.9041 31.3803 23.8562 31.3803 23.7699V23.7411C31.3803 23.5301 30.9956 23.4822 30.9956 23.1082V21.3055L32.1121 21.2863H32.1965L33.388 23.1082C33.6132 23.5014 33.191 23.5301 33.191 23.7411V23.7699C33.191 23.8562 33.2661 23.9041 33.388 23.9041H35.0205C35.1425 23.9041 35.2175 23.8562 35.2175 23.7699V23.7411C35.2175 23.5301 34.861 23.5205 34.5889 23.1082ZM31.9807 20.8068H31.4553C31.1551 20.8068 30.9956 20.663 30.9956 20.2603V17.9685C30.9956 17.7384 31.0894 17.5849 31.2771 17.5849H31.7462C32.6375 17.5849 33.4912 18.1795 33.4912 19.3685C33.4912 20.3082 32.8626 20.8068 31.9807 20.8068Z" fill="#210705"/>
<path d="M38.907 24C40.7271 24 42.125 22.4945 42.125 20.5384C42.125 18.6493 40.8303 17 38.8601 17C36.918 17 35.5764 18.4767 35.5764 20.5C35.5764 22.3699 36.918 24 38.907 24ZM39.2072 23.4822C37.6967 23.4822 36.6928 21.7562 36.6928 19.637C36.6928 18.4 37.3965 17.5178 38.466 17.5178C39.9765 17.5178 41.0086 19.2534 41.0086 21.3822C41.0086 22.5233 40.2768 23.4822 39.2072 23.4822Z" fill="#210705"/>
<path d="M46.0052 24C47.5063 24 48.5477 22.9836 48.5477 21.2959V17.8918C48.5477 17.5178 48.9418 17.4699 48.9418 17.2685V17.2301C48.9418 17.1438 48.8573 17.0959 48.7354 17.0959H47.7878C47.6658 17.0959 47.5814 17.1438 47.5814 17.2301V17.2685C47.5814 17.4699 47.9473 17.5178 47.9473 17.8918V21.2863C47.9473 22.8205 47.0841 23.4822 46.2398 23.4822C45.1327 23.4822 44.429 22.6671 44.429 21.2863V17.8918C44.429 17.5178 44.8043 17.4699 44.8043 17.2685V17.2301C44.8043 17.1438 44.7293 17.0959 44.6073 17.0959H43.1343C43.0124 17.0959 42.9279 17.1438 42.9279 17.2301V17.2685C42.9279 17.4699 43.2844 17.5178 43.2844 17.8918V21.2863C43.2844 22.9836 44.4009 24 46.0052 24Z" fill="#210705"/>
<path d="M50.0932 23.9041H51.5662C51.6788 23.9041 51.7632 23.8466 51.7632 23.7603V23.7315C51.7632 23.5397 51.3785 23.4822 51.3785 23.1082V21.6411H52.2792C53.968 21.6411 55 20.7685 55 19.311C55 17.7096 53.649 17.0959 52.0353 17.0959H50.0932C49.9619 17.0959 49.8868 17.1438 49.8868 17.2301V17.2685C49.8868 17.4699 50.2433 17.537 50.2433 17.8918V23.1082C50.2433 23.4822 49.8868 23.5397 49.8868 23.7315V23.7603C49.8868 23.8466 49.9619 23.9041 50.0932 23.9041ZM51.7444 21.1616C51.4911 21.1616 51.3785 21.0178 51.3785 20.7781V17.9397C51.3785 17.7096 51.4724 17.5753 51.6506 17.5753H52.0353C52.9453 17.5753 53.8366 18.237 53.8366 19.589C53.8366 20.5192 53.2549 21.1616 52.2792 21.1616H51.7444Z" fill="#210705"/>
</svg>
